<svg xmlns="http://www.w3.org/2000/svg" width="29" height="28" viewBox="0 0 29 28"><g id="Group_101" data-name="Group 101" transform="translate(-1950 -515)"><g id="Group_100" data-name="Group 100"><path id="Icon_awesome-eye" fill="#fff" d="M16.781,9.7a9.4,9.4,0,0,0-8.34-5.2A9.4,9.4,0,0,0,.1,9.7a.948.948,0,0,0,0,.856,9.4,9.4,0,0,0,8.34,5.2,9.4,9.4,0,0,0,8.34-5.2A.948.948,0,0,0,16.781,9.7Zm-8.34,4.649a4.221,4.221,0,1,1,4.221-4.221A4.221,4.221,0,0,1,8.442,14.348Zm0-7.035a2.794,2.794,0,0,0-.742.111A1.4,1.4,0,0,1,5.739,9.386a2.807,2.807,0,1,0,2.7-2.072Z" data-name="Icon awesome-eye" transform="translate(1955.659 519.281)"/><g id="Rectangle_231" fill="none" stroke="#fff" stroke-width="1" data-name="Rectangle 231" transform="translate(1950 515)"><rect width="29" height="28" stroke="none" rx="3"/><rect width="28" height="27" x=".5" y=".5" fill="none" rx="2.5"/></g></g><line id="Line_168" x2="14" y1="14" fill="none" stroke="#fff" stroke-linecap="round" stroke-width="2" data-name="Line 168" transform="translate(1957.5 522.5)"/></g></svg>